<svg width="2111" height="600" viewBox="0 0 2111 600" fill="none" xmlns="http://www.w3.org/2000/svg">
<rect width="2111" height="600" fill="black"/>
<path d="M126.938 237.938V278.312H148.125V284H119.312V237.938H126.938ZM171.938 248.562C174.229 248.688 176.312 249.25 178.188 250.25C180.062 251.208 181.625 252.5 182.875 254.125C184.167 255.708 185.167 257.562 185.875 259.688C186.583 261.812 186.938 264.083 186.938 266.5C186.938 268.917 186.562 271.188 185.812 273.312C185.104 275.396 184.104 277.229 182.812 278.812C181.521 280.354 179.938 281.604 178.062 282.562C176.188 283.521 174.146 284.083 171.938 284.25V278.25C174.021 277.792 175.708 276.479 177 274.312C178.333 272.146 179 269.542 179 266.5C179 264.958 178.833 263.521 178.5 262.188C178.208 260.812 177.75 259.583 177.125 258.5C176.5 257.417 175.75 256.521 174.875 255.812C174 255.104 173.021 254.646 171.938 254.438V248.562ZM154.5 266.375C154.5 263.958 154.854 261.708 155.562 259.625C156.271 257.542 157.271 255.729 158.562 254.188C159.896 252.604 161.479 251.333 163.312 250.375C165.146 249.417 167.167 248.833 169.375 248.625V254.438C167.292 254.896 165.625 256.208 164.375 258.375C163.125 260.542 162.5 263.146 162.5 266.188C162.5 267.729 162.646 269.188 162.938 270.562C163.271 271.938 163.729 273.167 164.312 274.25C164.896 275.333 165.604 276.229 166.438 276.938C167.312 277.646 168.292 278.083 169.375 278.25V284.25C167.083 284.083 165.021 283.521 163.188 282.562C161.354 281.562 159.792 280.271 158.5 278.688C157.208 277.104 156.208 275.25 155.5 273.125C154.833 271 154.5 268.75 154.5 266.375ZM220.188 257.875C219.562 257.125 218.688 256.438 217.562 255.812C216.479 255.146 215.021 254.75 213.188 254.625V248.625C215.479 248.75 217.438 249.25 219.062 250.125C220.729 250.958 222.229 252.188 223.562 253.812L220.188 257.875ZM213.188 278.062C214.688 277.896 215.958 277.542 217 277C218.083 276.417 219.104 275.75 220.062 275L222.875 279.062C221.583 280.688 220.188 281.938 218.688 282.812C217.188 283.646 215.354 284.125 213.188 284.25V278.062ZM195.75 266.375C195.75 264 196.083 261.771 196.75 259.688C197.458 257.604 198.479 255.771 199.812 254.188C201.146 252.604 202.708 251.333 204.5 250.375C206.333 249.375 208.375 248.792 210.625 248.625V254.688C208.542 255.146 206.875 256.438 205.625 258.562C204.375 260.646 203.75 263.188 203.75 266.188C203.75 267.729 203.896 269.188 204.188 270.562C204.521 271.896 204.979 273.083 205.562 274.125C206.146 275.167 206.854 276.042 207.688 276.75C208.562 277.458 209.542 277.896 210.625 278.062V284.25C208.333 284.125 206.271 283.583 204.438 282.625C202.604 281.625 201.042 280.333 199.75 278.75C198.458 277.125 197.458 275.25 196.75 273.125C196.083 271 195.75 268.75 195.75 266.375ZM239.125 273.375C239.125 275.25 239.5 276.646 240.25 277.562C241.042 278.479 242.167 279.021 243.625 279.188V284.25C243.458 284.292 243.188 284.312 242.812 284.312C241.396 284.312 240.021 284.125 238.688 283.75C237.396 283.375 236.25 282.771 235.25 281.938C234.25 281.104 233.458 280 232.875 278.625C232.333 277.25 232.062 275.562 232.062 273.562C232.062 271.646 232.458 270 233.25 268.625C234.083 267.208 235.125 266.062 236.375 265.188C237.667 264.271 239.125 263.604 240.75 263.188C242.375 262.729 244.021 262.5 245.688 262.5H248.438V266.938H247.062C246.229 266.938 245.354 267.021 244.438 267.188C243.521 267.354 242.667 267.667 241.875 268.125C241.083 268.583 240.417 269.25 239.875 270.125C239.375 270.958 239.125 272.042 239.125 273.375ZM258.562 273.562C258.562 273.896 258.583 274.396 258.625 275.062C258.667 275.688 258.75 276.333 258.875 277C259 277.667 259.188 278.271 259.438 278.812C259.729 279.354 260.104 279.708 260.562 279.875L258.562 284.062C258.021 284.062 257.438 283.938 256.812 283.688C256.229 283.438 255.646 283.083 255.062 282.625C254.521 282.167 254.042 281.667 253.625 281.125C253.25 280.542 252.958 279.917 252.75 279.25C252.333 280.292 251.5 281.229 250.25 282.062C249.042 282.854 247.688 283.438 246.188 283.812V279.062C247.188 278.854 248.083 278.458 248.875 277.875C249.708 277.25 250.417 276.521 251 275.688V262.5C251 260.458 250.896 258.833 250.688 257.625C250.479 256.417 250.125 255.542 249.625 255C249.125 254.417 248.5 254.062 247.75 253.938C247.042 253.771 246.188 253.688 245.188 253.688C244.271 253.688 243.396 253.812 242.562 254.062C241.771 254.271 241.021 254.542 240.312 254.875C239.646 255.167 239.042 255.5 238.5 255.875C238 256.25 237.625 256.542 237.375 256.75L234.562 252.438C234.979 251.979 235.604 251.521 236.438 251.062C237.271 250.562 238.229 250.125 239.312 249.75C240.396 249.375 241.562 249.083 242.812 248.875C244.104 248.625 245.438 248.5 246.812 248.5C248.062 248.5 249.271 248.625 250.438 248.875C251.646 249.125 252.729 249.542 253.688 250.125C254.688 250.708 255.542 251.5 256.25 252.5C257 253.458 257.521 254.667 257.812 256.125C258.104 257.583 258.292 259.062 258.375 260.562C258.5 262.021 258.562 263.479 258.562 264.938V273.062V273.562ZM278 273.25C278 274.667 278.188 275.792 278.562 276.625C278.938 277.417 279.458 278.021 280.125 278.438C280.792 278.812 281.542 279.062 282.375 279.188C283.25 279.312 284.188 279.375 285.188 279.375V284C284.646 284.083 284.083 284.146 283.5 284.188C283.042 284.229 282.5 284.25 281.875 284.25C281.25 284.292 280.625 284.312 280 284.312C279.375 284.312 278.75 284.292 278.125 284.25C277.5 284.208 276.938 284.146 276.438 284.062C275.021 283.771 273.917 283.146 273.125 282.188C272.333 281.229 271.729 280.167 271.312 279C270.896 277.792 270.625 276.625 270.5 275.5C270.417 274.375 270.375 273.5 270.375 272.875V272.125V235.438H278V273.25ZM293.812 237.938H301.312V284H293.812V237.938ZM307.688 237.938C311.562 237.938 314.958 238.562 317.875 239.812C320.833 241.021 323.271 242.646 325.188 244.688C327.146 246.729 328.604 249.062 329.562 251.688C330.521 254.271 331 256.938 331 259.688C331 263.479 330.583 266.729 329.75 269.438C328.958 272.104 327.938 274.354 326.688 276.188C325.438 277.979 324.021 279.396 322.438 280.438C320.896 281.479 319.396 282.271 317.938 282.812C316.479 283.312 315.146 283.646 313.938 283.812C312.729 283.938 311.833 284 311.25 284H303.875V278.5H308.75C313.833 278.5 317.5 276.875 319.75 273.625C322 270.375 323.125 265.667 323.125 259.5C323.125 257.583 322.896 255.688 322.438 253.812C321.979 251.938 321.083 250.25 319.75 248.75C318.458 247.208 316.688 245.979 314.438 245.062C312.188 244.104 309.271 243.625 305.688 243.625H303.875V237.938H307.688ZM347.438 273.375C347.438 275.25 347.812 276.646 348.562 277.562C349.354 278.479 350.479 279.021 351.938 279.188V284.25C351.771 284.292 351.5 284.312 351.125 284.312C349.708 284.312 348.333 284.125 347 283.75C345.708 283.375 344.562 282.771 343.562 281.938C342.562 281.104 341.771 280 341.188 278.625C340.646 277.25 340.375 275.562 340.375 273.562C340.375 271.646 340.771 270 341.562 268.625C342.396 267.208 343.438 266.062 344.688 265.188C345.979 264.271 347.438 263.604 349.062 263.188C350.688 262.729 352.333 262.5 354 262.5H356.75V266.938H355.375C354.542 266.938 353.667 267.021 352.75 267.188C351.833 267.354 350.979 267.667 350.188 268.125C349.396 268.583 348.729 269.25 348.188 270.125C347.688 270.958 347.438 272.042 347.438 273.375ZM366.875 273.562C366.875 273.896 366.896 274.396 366.938 275.062C366.979 275.688 367.062 276.333 367.188 277C367.312 277.667 367.5 278.271 367.75 278.812C368.042 279.354 368.417 279.708 368.875 279.875L366.875 284.062C366.333 284.062 365.75 283.938 365.125 283.688C364.542 283.438 363.958 283.083 363.375 282.625C362.833 282.167 362.354 281.667 361.938 281.125C361.562 280.542 361.271 279.917 361.062 279.25C360.646 280.292 359.812 281.229 358.562 282.062C357.354 282.854 356 283.438 354.5 283.812V279.062C355.5 278.854 356.396 278.458 357.188 277.875C358.021 277.25 358.729 276.521 359.312 275.688V262.5C359.312 260.458 359.208 258.833 359 257.625C358.792 256.417 358.438 255.542 357.938 255C357.438 254.417 356.812 254.062 356.062 253.938C355.354 253.771 354.5 253.688 353.5 253.688C352.583 253.688 351.708 253.812 350.875 254.062C350.083 254.271 349.333 254.542 348.625 254.875C347.958 255.167 347.354 255.5 346.812 255.875C346.312 256.25 345.938 256.542 345.688 256.75L342.875 252.438C343.292 251.979 343.917 251.521 344.75 251.062C345.583 250.562 346.542 250.125 347.625 249.75C348.708 249.375 349.875 249.083 351.125 248.875C352.417 248.625 353.75 248.5 355.125 248.5C356.375 248.5 357.583 248.625 358.75 248.875C359.958 249.125 361.042 249.542 362 250.125C363 250.708 363.854 251.5 364.562 252.5C365.312 253.458 365.833 254.667 366.125 256.125C366.417 257.583 366.604 259.062 366.688 260.562C366.812 262.021 366.875 263.479 366.875 264.938V273.062V273.562ZM388.875 273.312C388.875 274.729 389.062 275.833 389.438 276.625C389.812 277.417 390.333 278.021 391 278.438C391.708 278.854 392.479 279.125 393.312 279.25C394.188 279.333 395.104 279.375 396.062 279.375V284C395.521 284.083 394.979 284.146 394.438 284.188C393.979 284.229 393.417 284.25 392.75 284.25C392.125 284.292 391.5 284.312 390.875 284.312C390.25 284.312 389.604 284.292 388.938 284.25C388.312 284.208 387.771 284.146 387.312 284.062C385.896 283.812 384.792 283.208 384 282.25C383.208 281.25 382.604 280.167 382.188 279C381.812 277.792 381.562 276.625 381.438 275.5C381.354 274.375 381.312 273.5 381.312 272.875V253.875H376.688V248.75H381.312V238.75H388.875V248.75H394.5V253.875H388.875V273.312ZM421.312 248.438C423.562 248.646 425.583 249.25 427.375 250.25C429.208 251.25 430.771 252.542 432.062 254.125C433.354 255.708 434.333 257.521 435 259.562C435.708 261.604 436.062 263.729 436.062 265.938C436.062 266.938 436 267.938 435.875 268.938H414.438V263.438H428.875C428.875 262.354 428.688 261.312 428.312 260.312C427.979 259.312 427.458 258.396 426.75 257.562C426.083 256.688 425.292 255.958 424.375 255.375C423.458 254.792 422.438 254.438 421.312 254.312V248.438ZM421.062 278.125C421.521 278.125 422.083 278.083 422.75 278C423.458 277.875 424.188 277.688 424.938 277.438C425.729 277.146 426.5 276.792 427.25 276.375C428.042 275.958 428.729 275.458 429.312 274.875L432.062 279.062C430.688 280.771 429.083 282.062 427.25 282.938C425.417 283.812 423.083 284.25 420.25 284.25C417.958 284.25 415.812 283.792 413.812 282.875C411.812 281.917 410.104 280.625 408.688 279C407.271 277.375 406.146 275.479 405.312 273.312C404.479 271.146 404.062 268.812 404.062 266.312C404.062 263.938 404.438 261.688 405.188 259.562C405.979 257.438 407.042 255.583 408.375 254C409.708 252.375 411.25 251.062 413 250.062C414.792 249.062 416.708 248.5 418.75 248.375V254.375C417.208 254.667 415.938 255.292 414.938 256.25C413.938 257.208 413.146 258.312 412.562 259.562C412.021 260.771 411.625 262.021 411.375 263.312C411.167 264.604 411.062 265.708 411.062 266.625C411.062 268.25 411.25 269.771 411.625 271.188C412.042 272.562 412.667 273.771 413.5 274.812C414.333 275.812 415.354 276.625 416.562 277.25C417.812 277.833 419.312 278.125 421.062 278.125ZM479.312 237.938V243.062H465.562V284H458V243.062H444.25V237.938H479.312ZM495.438 284H487.812V248.75H495.438V284ZM496.125 237.5C496.125 238.75 495.688 239.812 494.812 240.688C493.938 241.521 492.875 241.938 491.625 241.938C490.375 241.938 489.312 241.5 488.438 240.625C487.604 239.75 487.188 238.708 487.188 237.5C487.188 236.25 487.625 235.188 488.5 234.312C489.375 233.438 490.417 233 491.625 233C492.875 233 493.938 233.438 494.812 234.312C495.688 235.188 496.125 236.25 496.125 237.5ZM512.875 248.75L513.688 252.375V284H506.062V248.75H512.875ZM542.375 248.375C543.792 248.375 545.125 248.667 546.375 249.25C547.625 249.792 548.708 250.583 549.625 251.625C550.583 252.667 551.312 253.917 551.812 255.375C552.354 256.792 552.625 258.333 552.625 260V284H545.125V264.812C545.125 263.396 545.104 262.062 545.062 260.812C545.062 259.521 544.938 258.375 544.688 257.375C544.438 256.375 544.021 255.604 543.438 255.062C542.896 254.479 542.042 254.188 540.875 254.188C540.583 254.188 539.958 254.25 539 254.375C538.042 254.5 536.938 254.854 535.688 255.438V250.5C536.812 249.833 537.958 249.312 539.125 248.938C540.292 248.562 541.375 248.375 542.375 248.375ZM531.562 253.188C532.062 253.938 532.417 254.75 532.625 255.625C532.875 256.458 533.021 257.333 533.062 258.25C533.146 259.167 533.167 260.125 533.125 261.125C533.125 262.083 533.125 263.104 533.125 264.188V284H525.562V264.812C525.562 263.396 525.562 262.062 525.562 260.812C525.562 259.521 525.438 258.375 525.188 257.375C524.938 256.375 524.521 255.604 523.938 255.062C523.354 254.479 522.5 254.188 521.375 254.188C520.875 254.188 520.125 254.292 519.125 254.5C518.167 254.667 517.208 254.979 516.25 255.438V250.5C517.25 249.917 518.312 249.438 519.438 249.062C520.604 248.688 521.75 248.5 522.875 248.5C524.792 248.5 526.396 248.896 527.688 249.688C529.021 250.479 530.312 251.646 531.562 253.188ZM579.75 248.438C582 248.646 584.021 249.25 585.812 250.25C587.646 251.25 589.208 252.542 590.5 254.125C591.792 255.708 592.771 257.521 593.438 259.562C594.146 261.604 594.5 263.729 594.5 265.938C594.5 266.938 594.438 267.938 594.312 268.938H572.875V263.438H587.312C587.312 262.354 587.125 261.312 586.75 260.312C586.417 259.312 585.896 258.396 585.188 257.562C584.521 256.688 583.729 255.958 582.812 255.375C581.896 254.792 580.875 254.438 579.75 254.312V248.438ZM579.5 278.125C579.958 278.125 580.521 278.083 581.188 278C581.896 277.875 582.625 277.688 583.375 277.438C584.167 277.146 584.938 276.792 585.688 276.375C586.479 275.958 587.167 275.458 587.75 274.875L590.5 279.062C589.125 280.771 587.521 282.062 585.688 282.938C583.854 283.812 581.521 284.25 578.688 284.25C576.396 284.25 574.25 283.792 572.25 282.875C570.25 281.917 568.542 280.625 567.125 279C565.708 277.375 564.583 275.479 563.75 273.312C562.917 271.146 562.5 268.812 562.5 266.312C562.5 263.938 562.875 261.688 563.625 259.562C564.417 257.438 565.479 255.583 566.812 254C568.146 252.375 569.688 251.062 571.438 250.062C573.229 249.062 575.146 248.5 577.188 248.375V254.375C575.646 254.667 574.375 255.292 573.375 256.25C572.375 257.208 571.583 258.312 571 259.562C570.458 260.771 570.062 262.021 569.812 263.312C569.604 264.604 569.5 265.708 569.5 266.625C569.5 268.25 569.688 269.771 570.062 271.188C570.479 272.562 571.104 273.771 571.938 274.812C572.771 275.812 573.792 276.625 575 277.25C576.25 277.833 577.75 278.125 579.5 278.125ZM161.562 366H153.75L149.438 360.625C148.354 362.042 147.021 363.25 145.438 364.25C143.854 365.208 142 365.854 139.875 366.188V360.688C141.5 360.229 142.771 359.542 143.688 358.625C144.604 357.667 145.375 356.812 146 356.062C145 354.854 143.979 353.646 142.938 352.438C141.896 351.229 140.875 350.062 139.875 348.938V338.375C141.708 337.458 143.083 336.292 144 334.875C144.917 333.458 145.375 332.042 145.375 330.625C145.375 329 144.833 327.771 143.75 326.938C142.708 326.062 141.417 325.604 139.875 325.562V319.5C141.333 319.5 142.729 319.729 144.062 320.188C145.438 320.604 146.646 321.271 147.688 322.188C148.771 323.104 149.625 324.25 150.25 325.625C150.875 327 151.188 328.625 151.188 330.5C151.104 332.125 150.812 333.604 150.312 334.938C149.812 336.229 149.146 337.396 148.312 338.438C147.521 339.479 146.625 340.396 145.625 341.188C144.667 341.938 143.708 342.562 142.75 343.062C143.542 344.188 144.562 345.417 145.812 346.75C147.062 348.083 148.25 349.396 149.375 350.688C149.833 349.979 150.271 349.25 150.688 348.5C151.104 347.708 151.562 346.771 152.062 345.688L156.938 347.688C156.479 349.021 155.917 350.333 155.25 351.625C154.583 352.917 153.875 354.208 153.125 355.5L161.562 366ZM128.375 330.062C128.375 328.771 128.583 327.562 129 326.438C129.417 325.312 130.021 324.292 130.812 323.375C131.604 322.417 132.542 321.625 133.625 321C134.75 320.375 135.979 319.938 137.312 319.688V326.062C136.521 326.396 135.833 326.917 135.25 327.625C134.708 328.333 134.438 329.146 134.438 330.062C134.438 331.521 134.729 332.792 135.312 333.875C135.938 334.958 136.604 335.896 137.312 336.688V346.125C135.229 347.5 133.708 348.979 132.75 350.562C131.833 352.146 131.375 353.688 131.375 355.188C131.375 355.646 131.458 356.208 131.625 356.875C131.833 357.542 132.167 358.188 132.625 358.812C133.083 359.396 133.667 359.917 134.375 360.375C135.125 360.792 136.042 361 137.125 361H137.312V366.438H136.5C135.167 366.438 133.833 366.229 132.5 365.812C131.208 365.396 130.021 364.729 128.938 363.812C127.854 362.896 126.979 361.729 126.312 360.312C125.646 358.854 125.312 357.146 125.312 355.188C125.312 353.521 125.562 351.979 126.062 350.562C126.562 349.146 127.229 347.875 128.062 346.75C128.896 345.583 129.833 344.542 130.875 343.625C131.958 342.667 133.042 341.854 134.125 341.188C133.625 340.688 133.042 340.083 132.375 339.375C131.708 338.625 131.062 337.792 130.438 336.875C129.854 335.958 129.354 334.938 128.938 333.812C128.562 332.646 128.375 331.396 128.375 330.062ZM213.688 328.812C212.729 327.729 211.708 326.917 210.625 326.375C209.542 325.833 208.375 325.521 207.125 325.438V319.25C211.792 319.458 215.708 321.104 218.875 324.188L213.688 328.812ZM207.125 360.125C208.375 360 209.542 359.667 210.625 359.125C211.75 358.583 212.771 357.792 213.688 356.75L218.875 361.312C217.292 362.854 215.521 364.042 213.562 364.875C211.604 365.708 209.458 366.188 207.125 366.312V360.125ZM186.875 342.75C186.875 339.042 187.312 335.771 188.188 332.938C189.104 330.104 190.354 327.708 191.938 325.75C193.521 323.792 195.375 322.271 197.5 321.188C199.667 320.104 202.021 319.458 204.562 319.25V325.5C203.188 325.708 201.896 326.188 200.688 326.938C199.479 327.646 198.417 328.688 197.5 330.062C196.583 331.438 195.854 333.188 195.312 335.312C194.812 337.396 194.542 339.875 194.5 342.75C194.542 345.667 194.812 348.167 195.312 350.25C195.854 352.333 196.583 354.083 197.5 355.5C198.417 356.917 199.479 358 200.688 358.75C201.938 359.5 203.229 359.958 204.562 360.125V366.25C202.021 366.083 199.667 365.458 197.5 364.375C195.375 363.292 193.521 361.771 191.938 359.812C190.354 357.854 189.104 355.458 188.188 352.625C187.312 349.75 186.875 346.458 186.875 342.75ZM235.375 355.375C235.375 357.25 235.75 358.646 236.5 359.562C237.292 360.479 238.417 361.021 239.875 361.188V366.25C239.708 366.292 239.438 366.312 239.062 366.312C237.646 366.312 236.271 366.125 234.938 365.75C233.646 365.375 232.5 364.771 231.5 363.938C230.5 363.104 229.708 362 229.125 360.625C228.583 359.25 228.312 357.562 228.312 355.562C228.312 353.646 228.708 352 229.5 350.625C230.333 349.208 231.375 348.062 232.625 347.188C233.917 346.271 235.375 345.604 237 345.188C238.625 344.729 240.271 344.5 241.938 344.5H244.688V348.938H243.312C242.479 348.938 241.604 349.021 240.688 349.188C239.771 349.354 238.917 349.667 238.125 350.125C237.333 350.583 236.667 351.25 236.125 352.125C235.625 352.958 235.375 354.042 235.375 355.375ZM254.812 355.562C254.812 355.896 254.833 356.396 254.875 357.062C254.917 357.688 255 358.333 255.125 359C255.25 359.667 255.438 360.271 255.688 360.812C255.979 361.354 256.354 361.708 256.812 361.875L254.812 366.062C254.271 366.062 253.688 365.938 253.062 365.688C252.479 365.438 251.896 365.083 251.312 364.625C250.771 364.167 250.292 363.667 249.875 363.125C249.5 362.542 249.208 361.917 249 361.25C248.583 362.292 247.75 363.229 246.5 364.062C245.292 364.854 243.938 365.438 242.438 365.812V361.062C243.438 360.854 244.333 360.458 245.125 359.875C245.958 359.25 246.667 358.521 247.25 357.688V344.5C247.25 342.458 247.146 340.833 246.938 339.625C246.729 338.417 246.375 337.542 245.875 337C245.375 336.417 244.75 336.062 244 335.938C243.292 335.771 242.438 335.688 241.438 335.688C240.521 335.688 239.646 335.812 238.812 336.062C238.021 336.271 237.271 336.542 236.562 336.875C235.896 337.167 235.292 337.5 234.75 337.875C234.25 338.25 233.875 338.542 233.625 338.75L230.812 334.438C231.229 333.979 231.854 333.521 232.688 333.062C233.521 332.562 234.479 332.125 235.562 331.75C236.646 331.375 237.812 331.083 239.062 330.875C240.354 330.625 241.688 330.5 243.062 330.5C244.312 330.5 245.521 330.625 246.688 330.875C247.896 331.125 248.979 331.542 249.938 332.125C250.938 332.708 251.792 333.5 252.5 334.5C253.25 335.458 253.771 336.667 254.062 338.125C254.354 339.583 254.542 341.062 254.625 342.562C254.75 344.021 254.812 345.479 254.812 346.938V355.062V355.562ZM274.25 355.25C274.25 356.667 274.438 357.792 274.812 358.625C275.188 359.417 275.708 360.021 276.375 360.438C277.042 360.812 277.792 361.062 278.625 361.188C279.5 361.312 280.438 361.375 281.438 361.375V366C280.896 366.083 280.333 366.146 279.75 366.188C279.292 366.229 278.75 366.25 278.125 366.25C277.5 366.292 276.875 366.312 276.25 366.312C275.625 366.312 275 366.292 274.375 366.25C273.75 366.208 273.188 366.146 272.688 366.062C271.271 365.771 270.167 365.146 269.375 364.188C268.583 363.229 267.979 362.167 267.562 361C267.146 359.792 266.875 358.625 266.75 357.5C266.667 356.375 266.625 355.5 266.625 354.875V354.125V317.438H274.25V355.25ZM305.812 330.438C308.062 330.646 310.083 331.25 311.875 332.25C313.708 333.25 315.271 334.542 316.562 336.125C317.854 337.708 318.833 339.521 319.5 341.562C320.208 343.604 320.562 345.729 320.562 347.938C320.562 348.938 320.5 349.938 320.375 350.938H298.938V345.438H313.375C313.375 344.354 313.188 343.312 312.812 342.312C312.479 341.312 311.958 340.396 311.25 339.562C310.583 338.688 309.792 337.958 308.875 337.375C307.958 336.792 306.938 336.438 305.812 336.312V330.438ZM305.562 360.125C306.021 360.125 306.583 360.083 307.25 360C307.958 359.875 308.688 359.688 309.438 359.438C310.229 359.146 311 358.792 311.75 358.375C312.542 357.958 313.229 357.458 313.812 356.875L316.562 361.062C315.188 362.771 313.583 364.062 311.75 364.938C309.917 365.812 307.583 366.25 304.75 366.25C302.458 366.25 300.312 365.792 298.312 364.875C296.312 363.917 294.604 362.625 293.188 361C291.771 359.375 290.646 357.479 289.812 355.312C288.979 353.146 288.562 350.812 288.562 348.312C288.562 345.938 288.938 343.688 289.688 341.562C290.479 339.438 291.542 337.583 292.875 336C294.208 334.375 295.75 333.062 297.5 332.062C299.292 331.062 301.208 330.5 303.25 330.375V336.375C301.708 336.667 300.438 337.292 299.438 338.25C298.438 339.208 297.646 340.312 297.062 341.562C296.521 342.771 296.125 344.021 295.875 345.312C295.667 346.604 295.562 347.708 295.562 348.625C295.562 350.25 295.75 351.771 296.125 353.188C296.542 354.562 297.167 355.771 298 356.812C298.833 357.812 299.854 358.625 301.062 359.25C302.312 359.833 303.812 360.125 305.562 360.125ZM337.688 330.75L338.5 334.312V366H330.938V330.75H337.688ZM357.188 334.625C357.896 335.333 358.438 336.167 358.812 337.125C359.229 338.042 359.521 339.021 359.688 340.062C359.896 341.062 360.021 342.083 360.062 343.125C360.104 344.167 360.125 345.188 360.125 346.188V364.75V366H352.5V346.812C352.5 345.396 352.438 344.042 352.312 342.75C352.188 341.458 351.896 340.312 351.438 339.312C350.979 338.312 350.354 337.542 349.562 337C348.771 336.417 347.667 336.125 346.25 336.125C345.667 336.125 344.875 336.229 343.875 336.438C342.917 336.604 341.979 336.896 341.062 337.312V332.5C342.188 331.917 343.396 331.417 344.688 331C346.021 330.583 347.312 330.375 348.562 330.375C350.438 330.375 352.021 330.771 353.312 331.562C354.604 332.312 355.896 333.333 357.188 334.625ZM399.938 317.438V366H392.75L392.312 361.812V317.438H399.938ZM368.312 347.875C368.312 344.625 368.75 341.896 369.625 339.688C370.542 337.479 371.708 335.688 373.125 334.312C374.542 332.938 376.104 331.958 377.812 331.375C379.562 330.75 381.271 330.438 382.938 330.438C384.229 330.438 385.458 330.583 386.625 330.875C387.792 331.167 388.833 331.583 389.75 332.125V338.75C389.042 338 388.25 337.396 387.375 336.938C386.5 336.479 385.521 336.25 384.438 336.25C383.146 336.25 382 336.583 381 337.25C380 337.875 379.146 338.75 378.438 339.875C377.771 341 377.25 342.292 376.875 343.75C376.5 345.208 376.312 346.771 376.312 348.438C376.312 350.104 376.521 351.667 376.938 353.125C377.354 354.542 377.917 355.792 378.625 356.875C379.333 357.958 380.188 358.812 381.188 359.438C382.229 360.062 383.354 360.375 384.562 360.375C386.604 360.375 388.333 359.562 389.75 357.938V364.438C388.75 364.979 387.583 365.438 386.25 365.812C384.958 366.146 383.583 366.312 382.125 366.312C380.458 366.312 378.812 366.021 377.188 365.438C375.604 364.812 374.188 363.812 372.938 362.438C371.354 360.646 370.188 358.438 369.438 355.812C368.688 353.146 368.312 350.5 368.312 347.875ZM416.75 355.375C416.75 357.25 417.125 358.646 417.875 359.562C418.667 360.479 419.792 361.021 421.25 361.188V366.25C421.083 366.292 420.812 366.312 420.438 366.312C419.021 366.312 417.646 366.125 416.312 365.75C415.021 365.375 413.875 364.771 412.875 363.938C411.875 363.104 411.083 362 410.5 360.625C409.958 359.25 409.688 357.562 409.688 355.562C409.688 353.646 410.083 352 410.875 350.625C411.708 349.208 412.75 348.062 414 347.188C415.292 346.271 416.75 345.604 418.375 345.188C420 344.729 421.646 344.5 423.312 344.5H426.062V348.938H424.688C423.854 348.938 422.979 349.021 422.062 349.188C421.146 349.354 420.292 349.667 419.5 350.125C418.708 350.583 418.042 351.25 417.5 352.125C417 352.958 416.75 354.042 416.75 355.375ZM436.188 355.562C436.188 355.896 436.208 356.396 436.25 357.062C436.292 357.688 436.375 358.333 436.5 359C436.625 359.667 436.812 360.271 437.062 360.812C437.354 361.354 437.729 361.708 438.188 361.875L436.188 366.062C435.646 366.062 435.062 365.938 434.438 365.688C433.854 365.438 433.271 365.083 432.688 364.625C432.146 364.167 431.667 363.667 431.25 363.125C430.875 362.542 430.583 361.917 430.375 361.25C429.958 362.292 429.125 363.229 427.875 364.062C426.667 364.854 425.312 365.438 423.812 365.812V361.062C424.812 360.854 425.708 360.458 426.5 359.875C427.333 359.25 428.042 358.521 428.625 357.688V344.5C428.625 342.458 428.521 340.833 428.312 339.625C428.104 338.417 427.75 337.542 427.25 337C426.75 336.417 426.125 336.062 425.375 335.938C424.667 335.771 423.812 335.688 422.812 335.688C421.896 335.688 421.021 335.812 420.188 336.062C419.396 336.271 418.646 336.542 417.938 336.875C417.271 337.167 416.667 337.5 416.125 337.875C415.625 338.25 415.25 338.542 415 338.75L412.188 334.438C412.604 333.979 413.229 333.521 414.062 333.062C414.896 332.562 415.854 332.125 416.938 331.75C418.021 331.375 419.188 331.083 420.438 330.875C421.729 330.625 423.062 330.5 424.438 330.5C425.688 330.5 426.896 330.625 428.062 330.875C429.271 331.125 430.354 331.542 431.312 332.125C432.312 332.708 433.167 333.5 433.875 334.5C434.625 335.458 435.146 336.667 435.438 338.125C435.729 339.583 435.917 341.062 436 342.562C436.125 344.021 436.188 345.479 436.188 346.938V355.062V355.562ZM454.875 330.75L455.688 334.375V353.5V353.625V366H448.125V330.75H454.875ZM458.25 332.312C459.292 331.729 460.542 331.292 462 331C463.458 330.667 465.438 330.5 467.938 330.5V338.375C466.771 338.042 465.354 337.854 463.688 337.812C462.771 337.812 461.833 337.896 460.875 338.062C459.958 338.188 459.083 338.396 458.25 338.688V332.312ZM531.25 366H523.5L511.562 331.5L499.5 366H491.688L507.812 320H515.25L531.25 366ZM515.688 351.375L517.5 356.438H505.562L507.312 351.375H515.688ZM540.875 319.938H548.375V366H540.875V319.938ZM554.125 319.938C556.083 319.938 558.021 320.25 559.938 320.875C561.854 321.5 563.562 322.438 565.062 323.688C566.604 324.938 567.833 326.458 568.75 328.25C569.708 330 570.188 331.979 570.188 334.188C570.188 336.521 569.792 338.646 569 340.562C568.208 342.438 567.104 344.021 565.688 345.312C564.271 346.604 562.562 347.604 560.562 348.312C558.562 349.021 556.354 349.375 553.938 349.375H550.938V343.875H555.25C556.167 343.875 557.062 343.729 557.938 343.438C558.854 343.104 559.688 342.583 560.438 341.875C561.188 341.167 561.792 340.188 562.25 338.938C562.708 337.646 562.938 336.062 562.938 334.188C562.938 333.438 562.833 332.583 562.625 331.625C562.417 330.625 561.979 329.688 561.312 328.812C560.688 327.896 559.792 327.146 558.625 326.562C557.458 325.938 555.917 325.625 554 325.625H550.938V319.938H554.125ZM586.5 366H578.875V319.938H586.5V366Z" fill="#7F52FF"/>
<path d="M750.75 212.5V356C750.75 364.667 749.167 372 746 378C742.833 383.833 738.583 388.583 733.25 392.25C727.917 395.75 721.75 398.25 714.75 399.75C707.917 401.083 700.833 401.75 693.5 401.75C689.833 401.75 685.5 401.333 680.5 400.5C675.667 399.833 670.583 398.75 665.25 397.25C660.083 395.583 655.083 393.75 650.25 391.75C645.417 389.75 641.333 387.5 638 385L650.75 364.75C652.417 365.917 654.75 367.167 657.75 368.5C660.917 369.667 664.333 370.833 668 372C671.667 373 675.5 373.917 679.5 374.75C683.5 375.583 687.25 376 690.75 376C699.583 376 706.583 374.333 711.75 371C717.083 367.5 719.917 361.667 720.25 353.5V212.5H750.75ZM796.75 216.25H826.75V400.5H796.75V216.25ZM852.25 216.25C867.75 216.25 881.333 218.75 893 223.75C904.833 228.583 914.583 235.083 922.25 243.25C930.083 251.417 935.917 260.75 939.75 271.25C943.583 281.583 945.5 292.25 945.5 303.25C945.5 318.417 943.833 331.417 940.5 342.25C937.333 352.917 933.25 361.917 928.25 369.25C923.25 376.417 917.583 382.083 911.25 386.25C905.083 390.417 899.083 393.583 893.25 395.75C887.417 397.75 882.083 399.083 877.25 399.75C872.417 400.25 868.833 400.5 866.5 400.5H837V378.5H856.5C876.833 378.5 891.5 372 900.5 359C909.5 346 914 327.167 914 302.5C914 294.833 913.083 287.25 911.25 279.75C909.417 272.25 905.833 265.5 900.5 259.5C895.333 253.333 888.25 248.417 879.25 244.75C870.25 240.917 858.583 239 844.25 239H837V216.25H852.25ZM1011.25 358C1011.25 365.5 1012.75 371.083 1015.75 374.75C1018.92 378.417 1023.42 380.583 1029.25 381.25V401.5C1028.58 401.667 1027.5 401.75 1026 401.75C1020.33 401.75 1014.83 401 1009.5 399.5C1004.33 398 999.75 395.583 995.75 392.25C991.75 388.917 988.583 384.5 986.25 379C984.083 373.5 983 366.75 983 358.75C983 351.083 984.583 344.5 987.75 339C991.083 333.333 995.25 328.75 1000.25 325.25C1005.42 321.583 1011.25 318.917 1017.75 317.25C1024.25 315.417 1030.83 314.5 1037.5 314.5H1048.5V332.25H1043C1039.67 332.25 1036.17 332.583 1032.5 333.25C1028.83 333.917 1025.42 335.167 1022.25 337C1019.08 338.833 1016.42 341.5 1014.25 345C1012.25 348.333 1011.25 352.667 1011.25 358ZM1089 358.75C1089 360.083 1089.08 362.083 1089.25 364.75C1089.42 367.25 1089.75 369.833 1090.25 372.5C1090.75 375.167 1091.5 377.583 1092.5 379.75C1093.67 381.917 1095.17 383.333 1097 384L1089 400.75C1086.83 400.75 1084.5 400.25 1082 399.25C1079.67 398.25 1077.33 396.833 1075 395C1072.83 393.167 1070.92 391.167 1069.25 389C1067.75 386.667 1066.58 384.167 1065.75 381.5C1064.08 385.667 1060.75 389.417 1055.75 392.75C1050.92 395.917 1045.5 398.25 1039.5 399.75V380.75C1043.5 379.917 1047.08 378.333 1050.25 376C1053.58 373.5 1056.42 370.583 1058.75 367.25V314.5C1058.75 306.333 1058.33 299.833 1057.5 295C1056.67 290.167 1055.25 286.667 1053.25 284.5C1051.25 282.167 1048.75 280.75 1045.75 280.25C1042.92 279.583 1039.5 279.25 1035.5 279.25C1031.83 279.25 1028.33 279.75 1025 280.75C1021.83 281.583 1018.83 282.667 1016 284C1013.33 285.167 1010.92 286.5 1008.75 288C1006.75 289.5 1005.25 290.667 1004.25 291.5L993 274.25C994.667 272.417 997.167 270.583 1000.5 268.75C1003.83 266.75 1007.67 265 1012 263.5C1016.33 262 1021 260.833 1026 260C1031.17 259 1036.5 258.5 1042 258.5C1047 258.5 1051.83 259 1056.5 260C1061.33 261 1065.67 262.667 1069.5 265C1073.5 267.333 1076.92 270.5 1079.75 274.5C1082.75 278.333 1084.83 283.167 1086 289C1087.17 294.833 1087.92 300.75 1088.25 306.75C1088.75 312.583 1089 318.417 1089 324.25V356.75V358.75ZM1177 357.75C1177 363.417 1177.75 367.833 1179.25 371C1180.75 374.167 1182.83 376.583 1185.5 378.25C1188.33 379.917 1191.42 381 1194.75 381.5C1198.25 381.833 1201.92 382 1205.75 382V400.5C1203.58 400.833 1201.42 401.083 1199.25 401.25C1197.42 401.417 1195.17 401.5 1192.5 401.5C1190 401.667 1187.5 401.75 1185 401.75C1182.5 401.75 1179.92 401.667 1177.25 401.5C1174.75 401.333 1172.58 401.083 1170.75 400.75C1165.08 399.75 1160.67 397.333 1157.5 393.5C1154.33 389.5 1151.92 385.167 1150.25 380.5C1148.75 375.667 1147.75 371 1147.25 366.5C1146.92 362 1146.75 358.5 1146.75 356V280H1128.25V259.5H1146.75V219.5H1177V259.5H1199.5V280H1177V357.75ZM1306.75 258.25C1315.75 259.083 1323.83 261.5 1331 265.5C1338.33 269.5 1344.58 274.667 1349.75 281C1354.92 287.333 1358.83 294.583 1361.5 302.75C1364.33 310.917 1365.75 319.417 1365.75 328.25C1365.75 332.25 1365.5 336.25 1365 340.25H1279.25V318.25H1337C1337 313.917 1336.25 309.75 1334.75 305.75C1333.42 301.75 1331.33 298.083 1328.5 294.75C1325.83 291.25 1322.67 288.333 1319 286C1315.33 283.667 1311.25 282.25 1306.75 281.75V258.25ZM1305.75 377C1307.58 377 1309.83 376.833 1312.5 376.5C1315.33 376 1318.25 375.25 1321.25 374.25C1324.42 373.083 1327.5 371.667 1330.5 370C1333.67 368.333 1336.42 366.333 1338.75 364L1349.75 380.75C1344.25 387.583 1337.83 392.75 1330.5 396.25C1323.17 399.75 1313.83 401.5 1302.5 401.5C1293.33 401.5 1284.75 399.667 1276.75 396C1268.75 392.167 1261.92 387 1256.25 380.5C1250.58 374 1246.08 366.417 1242.75 357.75C1239.42 349.083 1237.75 339.75 1237.75 329.75C1237.75 320.25 1239.25 311.25 1242.25 302.75C1245.42 294.25 1249.67 286.833 1255 280.5C1260.33 274 1266.5 268.75 1273.5 264.75C1280.67 260.75 1288.33 258.5 1296.5 258V282C1290.33 283.167 1285.25 285.667 1281.25 289.5C1277.25 293.333 1274.08 297.75 1271.75 302.75C1269.58 307.583 1268 312.583 1267 317.75C1266.17 322.917 1265.75 327.333 1265.75 331C1265.75 337.5 1266.5 343.583 1268 349.25C1269.67 354.75 1272.17 359.583 1275.5 363.75C1278.83 367.75 1282.92 371 1287.75 373.5C1292.75 375.833 1298.75 377 1305.75 377ZM1538.75 216.25V236.75H1483.75V400.5H1453.5V236.75H1398.5V216.25H1538.75ZM1603.25 400.5H1572.75V259.5H1603.25V400.5ZM1606 214.5C1606 219.5 1604.25 223.75 1600.75 227.25C1597.25 230.583 1593 232.25 1588 232.25C1583 232.25 1578.75 230.5 1575.25 227C1571.92 223.5 1570.25 219.333 1570.25 214.5C1570.25 209.5 1572 205.25 1575.5 201.75C1579 198.25 1583.17 196.5 1588 196.5C1593 196.5 1597.25 198.25 1600.75 201.75C1604.25 205.25 1606 209.5 1606 214.5ZM1673 259.5L1676.25 274V400.5H1645.75V259.5H1673ZM1791 258C1796.67 258 1802 259.167 1807 261.5C1812 263.667 1816.33 266.833 1820 271C1823.83 275.167 1826.75 280.167 1828.75 286C1830.92 291.667 1832 297.833 1832 304.5V400.5H1802V323.75C1802 318.083 1801.92 312.75 1801.75 307.75C1801.75 302.583 1801.25 298 1800.25 294C1799.25 290 1797.58 286.917 1795.25 284.75C1793.08 282.417 1789.67 281.25 1785 281.25C1783.83 281.25 1781.33 281.5 1777.5 282C1773.67 282.5 1769.25 283.917 1764.25 286.25V266.5C1768.75 263.833 1773.33 261.75 1778 260.25C1782.67 258.75 1787 258 1791 258ZM1747.75 277.25C1749.75 280.25 1751.17 283.5 1752 287C1753 290.333 1753.58 293.833 1753.75 297.5C1754.08 301.167 1754.17 305 1754 309C1754 312.833 1754 316.917 1754 321.25V400.5H1723.75V323.75C1723.75 318.083 1723.75 312.75 1723.75 307.75C1723.75 302.583 1723.25 298 1722.25 294C1721.25 290 1719.58 286.917 1717.25 284.75C1714.92 282.417 1711.5 281.25 1707 281.25C1705 281.25 1702 281.667 1698 282.5C1694.17 283.167 1690.33 284.417 1686.5 286.25V266.5C1690.5 264.167 1694.75 262.25 1699.25 260.75C1703.92 259.25 1708.5 258.5 1713 258.5C1720.67 258.5 1727.08 260.083 1732.25 263.25C1737.58 266.417 1742.75 271.083 1747.75 277.25ZM1940.5 258.25C1949.5 259.083 1957.58 261.5 1964.75 265.5C1972.08 269.5 1978.33 274.667 1983.5 281C1988.67 287.333 1992.58 294.583 1995.25 302.75C1998.08 310.917 1999.5 319.417 1999.5 328.25C1999.5 332.25 1999.25 336.25 1998.75 340.25H1913V318.25H1970.75C1970.75 313.917 1970 309.75 1968.5 305.75C1967.17 301.75 1965.08 298.083 1962.25 294.75C1959.58 291.25 1956.42 288.333 1952.75 286C1949.08 283.667 1945 282.25 1940.5 281.75V258.25ZM1939.5 377C1941.33 377 1943.58 376.833 1946.25 376.5C1949.08 376 1952 375.25 1955 374.25C1958.17 373.083 1961.25 371.667 1964.25 370C1967.42 368.333 1970.17 366.333 1972.5 364L1983.5 380.75C1978 387.583 1971.58 392.75 1964.25 396.25C1956.92 399.75 1947.58 401.5 1936.25 401.5C1927.08 401.5 1918.5 399.667 1910.5 396C1902.5 392.167 1895.67 387 1890 380.5C1884.33 374 1879.83 366.417 1876.5 357.75C1873.17 349.083 1871.5 339.75 1871.5 329.75C1871.5 320.25 1873 311.25 1876 302.75C1879.17 294.25 1883.42 286.833 1888.75 280.5C1894.08 274 1900.25 268.75 1907.25 264.75C1914.42 260.75 1922.08 258.5 1930.25 258V282C1924.08 283.167 1919 285.667 1915 289.5C1911 293.333 1907.83 297.75 1905.5 302.75C1903.33 307.583 1901.75 312.583 1900.75 317.75C1899.92 322.917 1899.5 327.333 1899.5 331C1899.5 337.5 1900.25 343.583 1901.75 349.25C1903.42 354.75 1905.92 359.583 1909.25 363.75C1912.58 367.75 1916.67 371 1921.5 373.5C1926.5 375.833 1932.5 377 1939.5 377Z" fill="#007A53"/>
</svg>
